<?xml version="1.0" encoding="iso-8859-1"?>
<!-- Generator: Adobe Illustrator 19.0.0, SVG Export Plug-In . SVG Version: 6.00 Build 0)  -->
<svg version="1.1" id="Capa_1" xmlns="http://www.w3.org/2000/svg" xmlns:xlink="http://www.w3.org/1999/xlink" x="0px" y="0px"
	 viewBox="0 0 512.001 512.001" style="enable-background:new 0 0 512.001 512.001;" xml:space="preserve">
<path style="fill:#A0E557;" d="M443.402,197.4c0-103.498-83.902-187.4-187.4-187.4s-187.4,83.902-187.4,187.4
	c0,44.866,15.774,86.043,42.069,118.305h-0.013L256.002,502l144.651-185.318h-0.109C427.316,284.276,443.402,242.717,443.402,197.4z
	"/>
<g>
	<path style="fill:#FFFFFF;" d="M141.506,161.4h228.991c-5.177-16.482-13.817-31.428-25.064-43.993H166.571
		C155.324,129.972,146.684,144.918,141.506,161.4z"/>
	<path style="fill:#FFFFFF;" d="M370.498,233.387H141.506c5.177,16.482,13.817,31.428,25.064,43.993h178.863
		C356.68,264.815,365.32,249.869,370.498,233.387z"/>
</g>
<path style="fill:#6A80FF;" d="M375.995,197.4c0-12.543-1.928-24.635-5.498-36H141.506c-3.57,11.365-5.498,23.457-5.498,36
	c0,12.538,1.926,24.626,5.494,35.987h229C374.069,222.026,375.995,209.939,375.995,197.4z"/>
<g>
	<path style="fill:#FF5D5D;" d="M166.571,117.407h178.863c-21.972-24.547-53.895-40-89.431-40S188.542,92.86,166.571,117.407z"/>
	<path style="fill:#FF5D5D;" d="M345.433,277.394H166.571c21.971,24.547,53.895,40,89.431,40S323.462,301.941,345.433,277.394z"/>
</g>
<path d="M181.042,395.92c-2.64,0-5.21,1.06-7.07,2.92c-1.87,1.87-2.93,4.44-2.93,7.08c0,2.63,1.06,5.21,2.93,7.07
	c1.86,1.86,4.43,2.93,7.07,2.93c2.63,0,5.21-1.07,7.07-2.93c1.86-1.87,2.93-4.44,2.93-7.07c0-2.64-1.07-5.21-2.93-7.08
	C186.252,396.98,183.672,395.92,181.042,395.92z"/>
<path d="M256.002,0c-108.847,0-197.4,88.553-197.4,197.4c0,45.142,15.629,89.25,44.02,124.256c0.05,0.067,0.101,0.134,0.152,0.201
	l48.558,62.238c3.397,4.354,9.681,5.13,14.036,1.733c4.354-3.397,5.13-9.681,1.733-14.036l-48.271-61.871
	c-0.129-0.182-0.264-0.359-0.406-0.534C92.744,277.881,78.602,238.11,78.602,197.4c0-97.818,79.581-177.4,177.4-177.4
	s177.4,79.582,177.4,177.4c0,41.148-14.407,81.248-40.567,112.912c-0.341,0.413-0.646,0.849-0.912,1.301L256.004,485.746
	l-43.477-55.727c-3.396-4.354-9.68-5.129-14.036-1.733c-4.354,3.397-5.13,9.681-1.733,14.036l51.359,65.83
	c1.895,2.428,4.803,3.848,7.883,3.849l0,0c3.08,0,5.988-1.419,7.883-3.847l144.651-185.318c0.219-0.28,0.421-0.57,0.606-0.867
	c28.553-35.069,44.26-79.247,44.26-124.567C453.402,88.553,364.849,0,256.002,0z"/>
<path d="M385.995,197.4c0-71.679-58.314-129.993-129.993-129.993S126.009,125.722,126.009,197.4s58.314,129.994,129.993,129.994
	S385.995,269.079,385.995,197.4z M192.832,287.394h126.34c-17.888,12.594-39.679,20-63.17,20S210.72,299.987,192.832,287.394z
	 M208.335,151.4h-52.232c4.004-8.661,9.097-16.721,15.111-23.993h169.575c6.014,7.273,11.107,15.332,15.111,23.993h-61.565
	c-5.523,0-10,4.477-10,10s4.477,10,10,10h68.547c2.029,8.34,3.113,17.045,3.113,26s-1.084,17.66-3.113,26H149.121
	c-2.029-8.34-3.113-17.045-3.113-26s1.084-17.66,3.113-26h59.214c5.523,0,10-4.477,10-10S213.858,151.4,208.335,151.4z
	 M355.901,243.4c-4.004,8.661-9.097,16.721-15.111,23.993H171.215c-6.014-7.273-11.107-15.332-15.111-23.993L355.901,243.4
	L355.901,243.4z M319.172,107.407h-126.34c17.888-12.594,39.679-20,63.17-20S301.284,94.813,319.172,107.407z"/>
<path d="M256.002,171.4c2.63,0,5.21-1.07,7.07-2.93c1.86-1.86,2.93-4.44,2.93-7.07s-1.07-5.21-2.93-7.07s-4.44-2.93-7.07-2.93
	c-2.63,0-5.21,1.07-7.07,2.93c-1.86,1.86-2.93,4.44-2.93,7.07s1.07,5.21,2.93,7.07C250.792,170.33,253.372,171.4,256.002,171.4z"/>
<g>
</g>
<g>
</g>
<g>
</g>
<g>
</g>
<g>
</g>
<g>
</g>
<g>
</g>
<g>
</g>
<g>
</g>
<g>
</g>
<g>
</g>
<g>
</g>
<g>
</g>
<g>
</g>
<g>
</g>
</svg>
