<?xml version="1.0" encoding="iso-8859-1"?>
<!-- Generator: Adobe Illustrator 19.0.0, SVG Export Plug-In . SVG Version: 6.00 Build 0)  -->
<svg version="1.1" id="Capa_1" xmlns="http://www.w3.org/2000/svg" xmlns:xlink="http://www.w3.org/1999/xlink" x="0px" y="0px"
	 viewBox="0 0 512 512" style="enable-background:new 0 0 512 512;" xml:space="preserve">
<path style="fill:#303C42;" d="M308.184,364.496l79.264-144.267c11.698-21.667,17.885-46.177,17.885-70.896
	C405.333,66.99,338.344,0,256,0S106.667,66.99,106.667,149.333c0,24.719,6.188,49.229,17.927,70.958l79.225,144.204
	c-93.404,6.342-182.486,30.556-182.486,72.837C21.333,486.354,139.385,512,256,512s234.667-25.646,234.667-74.667
	C490.667,395.052,401.59,370.839,308.184,364.496z"/>
<path style="fill:#E6E6E6;" d="M256,490.667c-130.229,0-213.333-31.583-213.333-53.333c0-18.296,59.993-46.133,172.536-52.116
	l31.453,57.251c1.865,3.417,5.448,5.531,9.344,5.531c3.896,0,7.479-2.115,9.344-5.531l31.454-57.251
	c112.54,5.983,172.535,33.82,172.535,52.116C469.333,459.083,386.229,490.667,256,490.667z"/>
<path style="opacity:0.2;fill:#FFFFFF;enable-background:new    ;" d="M53.535,451.22c0-18.121,58.935-45.572,169.411-51.908
	l-7.743-14.095c-112.543,5.983-172.536,33.82-172.536,52.116c0,4.611,3.945,9.665,11.072,14.766
	C53.71,451.81,53.535,451.505,53.535,451.22z"/>
<linearGradient id="SVGID_1_" gradientUnits="userSpaceOnUse" x1="-32.5859" y1="628.6319" x2="-27.2102" y2="623.2532" gradientTransform="matrix(21.3333 0 0 -21.3333 996.3334 13791.667)">
	<stop  offset="0" style="stop-color:#000000;stop-opacity:0.1"/>
	<stop  offset="1" style="stop-color:#000000;stop-opacity:0"/>
</linearGradient>
<path style="fill:url(#SVGID_1_);" d="M249.103,445.001L249.102,445l-0.073,0.305l44.382,44.382
	c108.439-5.303,175.923-32.773,175.923-52.353c0-18.296-59.993-46.133-172.534-52.116l-31.456,57.251
	C263.479,445.885,259.896,448,256,448c-1.514,0-2.874-0.467-4.147-1.133C250.798,446.41,249.96,445.772,249.103,445.001z"/>
<path style="fill:#0288D1;" d="M128,150.156c0-70.583,57.417-128,128-128s128,57.417,128,128c0,21.188-5.302,42.198-15.281,60.688
	L256,416L143.323,210.906C133.302,192.354,128,171.344,128,150.156z"/>
<circle style="fill:#303C42;" cx="256" cy="150.187" r="85.333"/>
<circle style="fill:#FFFFFF;" cx="256" cy="150.187" r="64"/>
<path style="opacity:0.1;enable-background:new    ;" d="M213.333,182.156c0-35.292,28.708-64,64-64
	c15.154,0,28.906,5.512,39.88,14.346c-7.719-26.672-32.086-46.346-61.214-46.346c-35.292,0-64,28.708-64,64
	c0,20.139,9.534,37.915,24.12,49.655C214.486,194.167,213.333,188.322,213.333,182.156z"/>
<linearGradient id="SVGID_2_" gradientUnits="userSpaceOnUse" x1="-43.3599" y1="637.4842" x2="-22.6898" y2="627.8423" gradientTransform="matrix(21.3333 0 0 -21.3333 996.3334 13791.667)">
	<stop  offset="0" style="stop-color:#FFFFFF;stop-opacity:0.2"/>
	<stop  offset="1" style="stop-color:#FFFFFF;stop-opacity:0"/>
</linearGradient>
<path style="fill:url(#SVGID_2_);" d="M308.184,364.496l79.264-144.267c11.698-21.667,17.885-46.177,17.885-70.896
	C405.333,66.99,338.344,0,256,0S106.667,66.99,106.667,149.333c0,24.719,6.188,49.229,17.927,70.958l79.225,144.204
	c-93.404,6.342-182.486,30.556-182.486,72.837C21.333,486.354,139.385,512,256,512s234.667-25.646,234.667-74.667
	C490.667,395.052,401.59,370.839,308.184,364.496z"/>
<g>
</g>
<g>
</g>
<g>
</g>
<g>
</g>
<g>
</g>
<g>
</g>
<g>
</g>
<g>
</g>
<g>
</g>
<g>
</g>
<g>
</g>
<g>
</g>
<g>
</g>
<g>
</g>
<g>
</g>
</svg>
