<?xml version="1.0" encoding="iso-8859-1"?>
<!-- Generator: Adobe Illustrator 19.0.0, SVG Export Plug-In . SVG Version: 6.00 Build 0)  -->
<svg version="1.1" id="Capa_1" xmlns="http://www.w3.org/2000/svg" xmlns:xlink="http://www.w3.org/1999/xlink" x="0px" y="0px"
	 viewBox="0 0 448.261 448.261" style="enable-background:new 0 0 448.261 448.261;" xml:space="preserve">
<path style="fill:#4DCFE0;" d="M224.148,0C164.066,0,109.731,28.212,75.25,77.845c-33.959,49.11-41.796,111.804-20.898,166.661
	c5.747,15.151,14.629,29.78,26.122,43.363l131.657,154.645c3.135,3.657,7.314,5.747,12.016,5.747c4.702,0,8.882-2.09,12.016-5.747
	l131.657-154.645c12.016-13.584,20.898-28.212,26.122-43.363c7.837-19.853,11.494-40.751,11.494-63.216
	C405.437,81.502,323.935,0,224.148,0z M224.148,124.343c31.347,0,56.424,25.078,56.424,56.424s-25.078,56.424-56.424,56.424
	s-56.424-25.078-56.424-56.424S192.801,124.343,224.148,124.343z"/>
<g>
</g>
<g>
</g>
<g>
</g>
<g>
</g>
<g>
</g>
<g>
</g>
<g>
</g>
<g>
</g>
<g>
</g>
<g>
</g>
<g>
</g>
<g>
</g>
<g>
</g>
<g>
</g>
<g>
</g>
</svg>
